<?xml version="1.0" encoding="UTF-8"?>
<svg id="Layer_2" data-name="Layer 2" xmlns="http://www.w3.org/2000/svg" xmlns:xlink="http://www.w3.org/1999/xlink" viewBox="0 0 351.46 337.2">
  <defs>
    <style>
      .cls-1 {
        mask: url(#mask);
      }

      .cls-2 {
        fill: #e8d9ca;
      }

      .cls-3, .cls-4, .cls-5, .cls-6, .cls-7, .cls-8 {
        fill: #7e4970;
      }

      .cls-9 {
        fill: #1b2e35;
      }

      .cls-10, .cls-11 {
        fill: #e06f58;
      }

      .cls-10, .cls-12, .cls-13 {
        opacity: .63;
      }

      .cls-14 {
        fill: #8a9970;
      }

      .cls-15 {
        fill: #f9efe5;
      }

      .cls-16 {
        fill: #2c444e;
      }

      .cls-17 {
        fill: #ff8d57;
      }

      .cls-4 {
        opacity: .17;
      }

      .cls-5 {
        opacity: .26;
      }

      .cls-6 {
        opacity: .78;
      }

      .cls-18 {
        fill: #0e1a1e;
      }

      .cls-7 {
        opacity: .55;
      }

      .cls-8 {
        opacity: .46;
      }

      .cls-19 {
        fill: #283769;
      }

      .cls-20 {
        fill: #606060;
        opacity: .1;
      }

      .cls-21 {
        fill: #b7aaa1;
      }

      .cls-22, .cls-13, .cls-23, .cls-24, .cls-25 {
        fill: #ffb319;
      }

      .cls-26 {
        fill: #116d88;
      }

      .cls-27 {
        fill: #ffd3ae;
      }

      .cls-28 {
        fill: #d1c7bf;
      }

      .cls-29 {
        fill: #fff;
      }

      .cls-30 {
        fill: #683c5f;
      }

      .cls-31 {
        fill: #e2960e;
      }

      .cls-32 {
        fill: #f2bc94;
      }

      .cls-33 {
        opacity: .68;
      }

      .cls-34 {
        opacity: .69;
      }

      .cls-35 {
        opacity: .43;
      }

      .cls-36, .cls-24 {
        opacity: .44;
      }

      .cls-37 {
        opacity: .52;
      }

      .cls-38 {
        opacity: .14;
      }

      .cls-39 {
        fill: #9baa85;
      }

      .cls-40 {
        fill: none;
        stroke: #ffd3ae;
        stroke-miterlimit: 10;
      }

      .cls-41 {
        fill: #f5a58e;
      }

      .cls-42 {
        fill: #ebdbce;
      }

      .cls-43 {
        fill: #e5907c;
      }

      .cls-23 {
        opacity: .54;
      }

      .cls-25 {
        opacity: .28;
      }

      .cls-44 {
        fill: #3c110d;
      }
    </style>
    <mask id="mask" x="109.73" y="127.37" width="179.67" height="209.83" maskUnits="userSpaceOnUse">
      <path class="cls-9" d="M166.09,188.5c13.92,48.21,27.86,96.51,38.06,145.61h64.12c-5.04-15.36-12.33-29.75-18.56-44.98-12.78-31.25-20.74-54.6-29.7-82.25-7.67-23.69-19.08-45.98-30.97-67.86l-36.54-11.65c-10.14,7.61-16.46,19.44-19.73,31.69-3.27,12.25-3.79,25.04-4.28,37.71-.64,16.37-1.28,32.74-1.92,49.11-1.15,29.41-2.3,58.83-3.46,88.24h66.38c-9.63-48.22-17.45-96.8-23.38-145.61Z"/>
    </mask>
  </defs>
  <g id="OBJECTS">
    <g>
      <g class="cls-36">
        <path class="cls-15" d="M351.46,100.84c-.76-2.39-5.78-12.58-13.28-20.47-14.67-15.43-32.08-28.62-52.02-35.09-19.94-6.47-42.63-5.61-60.63,5.38-21.42,13.07-33.13,37.68-46.25,59.59-3.95,6.59-8.44,13.33-15.19,16.66-11.72,5.78-25.3-.62-37.28-5.81-10.51-4.55-21.61-8.25-32.99-8.14-19.91.2-38.8,12.73-49.16,30.39-10.36,17.66-12.59,39.76-8.06,59.89,2.16,9.63,5.78,19.72,2.69,29.07-4.05,12.24-17.51,17.6-26.56,26.5-10.63,10.45-15.18,27.1-11.41,41.79,1.06,4.13,2.99,8.16,5.54,11.91,8.52,12.53,26.09,21.47,41.25,21.55l303.37-.03"/>
      </g>
      <path class="cls-20" d="M349.7,197.59c-1.7-2.19-4.16-3.85-6.63-5.25-1.21-.69-2.47-1.32-3.73-1.93-.92-1.65-2.71-2.78-4.79-2.78h-1.03c-.85-.41-1.69-.83-2.54-1.25v-1.13h-.01c-.15-.96-2.8-1.83-7.06-2.48-1.87-1-3.71-2.11-5.06-3.67-1.8-2.08-1.97-4.63-.98-7.07.98-2.43,2.69-4.54,3.88-6.87,1.2-2.36,1.67-4.95,1.27-7.54-.11-.71-.29-1.42-.53-2.1l12.7-23.46c.55-1.02.59-2.2.1-3.24-.48-1.03-1.41-1.8-2.56-2.14-.02-.03-.04-.07-.06-.11-2.9-4.19-8.97-4.58-13.84-3.82l-13.26-3.74c-.99-1.8-2.2-3.54-3.68-5.18,0,0,0,0,0,0h0c-.41-.46-.84-.9-1.29-1.34.33-.56.54-1.19.54-1.87,0-2.14-1.88-3.88-4.2-3.88s-4.18,1.72-4.2,3.84c-5.13,1-19.76,5.86-27.94,29.29-.49,1.4-.13,2.94.95,4.02,1.02,1.02,2.51,2.36,4.47,3.72h0s0,0,0,0c.6.42,1.25.84,1.94,1.26,0,0,0,0,0,0,.19.12.39.23.59.35.07.04.15.08.22.13.19.11.38.21.57.32.09.05.17.09.26.14.34.18.7.36,1.06.54.11.05.22.11.33.16.17.08.35.16.52.24.15.07.3.14.45.2.17.08.34.15.52.22.18.07.36.15.54.22.16.06.32.13.48.19.32.12.65.25.99.36.14.05.27.09.41.14.23.08.47.16.71.23.15.05.31.1.47.14.24.07.49.14.74.21.14.04.29.08.44.12.39.1.78.2,1.17.29.08.02.16.03.24.05.34.07.68.15,1.02.21.15.03.29.05.44.08.3.05.6.1.9.15.15.02.3.05.44.07.39.06.79.11,1.19.15.05,0,.11.01.16.02.46.05.92.09,1.39.12.14,0,.28.02.42.02.35.02.7.04,1.06.05.15,0,.31,0,.47.01.39,0,.79,0,1.2,0,.1,0,.21,0,.31,0,.51,0,1.02-.03,1.54-.06.13,0,.25-.02.38-.03.4-.03.81-.06,1.22-.1.17-.02.34-.03.51-.05.4-.04.81-.09,1.22-.15.15-.02.29-.04.44-.06.55-.08,1.11-.17,1.68-.27.1-.02.2-.04.29-.06.47-.09.95-.18,1.44-.29.18-.04.37-.08.55-.12.42-.1.85-.2,1.28-.31.18-.05.36-.09.54-.14.6-.16,1.21-.33,1.82-.51.77-.23,1.44-.65,1.97-1.18.53-.54.91-1.2,1.09-1.93.05-.2.1-.41.16-.63.02-.08.04-.18.06-.26.03-.14.07-.28.1-.43.03-.12.05-.24.08-.36.03-.13.06-.26.09-.39.03-.14.06-.3.09-.45.02-.12.05-.24.07-.36.03-.17.07-.35.1-.52.02-.11.04-.22.06-.33.04-.2.07-.4.1-.6.02-.1.03-.19.05-.29.04-.22.07-.45.1-.68.01-.09.03-.18.04-.27.04-.25.07-.5.1-.75,0-.07.02-.14.03-.21.04-.28.07-.57.1-.86,0-.03,0-.07.01-.11.45-4.17.5-9.23-.66-14.32,2.08-1.28,4.33-2.3,6.71-3.01.12-.04.25-.06.37-.1l16.46,4.64c.59.17,1.07.56,1.31,1.09.12.26.18.54.17.81,0,0,0,0,0,.01,0,.28-.08.55-.22.8l-1.84,3.4c-1.17.97-2.67,1.68-4.01,2.39-2.47,1.31-4.7,2.99-6.56,4.98-1.76,1.89-3.4,4.14-2.6,6.74.37,1.2,1.11,2.27,1.82,3.31.36.54.71,1.08,1.03,1.63l-15.11,27.91c-.47,0-.95,0-1.43,0-14.36,0-26.03,1.64-26.35,3.68h-.01v1.34h.02c.07.36.5.71,1.23,1.04h-46.08c.22-.3.35-.66.35-1.05v-.59c0-1-.84-1.81-1.88-1.81h-7.13v-15.62c.18.04.36.05.54.06,3.14.2,6.29-.18,9.27-1.01h23.88c1.75,0,3.17-1.37,3.17-3.05v-58.45c0-1.69-1.42-3.05-3.17-3.05h-31.61c-3.29-5.46-5.88-11.24-9.78-16.39-3.96-5.24-9.83-9.94-16.77-11.4-1.89-.59-4-.69-6.01-.76-1.55-.05-3.1-.09-4.66-.14-.6-.02-1.21-.04-1.8.11-1.13.27-3.28,1.54-4.35,1.98-6.8,2.78-13.18,2.33-18.35-1.68-4.57,2.01-9.14,4.01-13.72,6.02-1.44.35-2.84.76-4.21,1.2l-13.69-2.21c-1.47-.24-2.86.72-3.11,2.14l-2.08,11.96c-.59.63-1.19,1.25-1.81,1.87-.75.74-1.54,1.47-2.35,2.19-4.35-.34-8.77.26-12.88,1.82-3.18,1.2-6.23,3-8.49,5.69-3.74,4.46-4.87,10.91-4.2,16.87.88,7.88,4.91,15.53,11.32,19.43,5.02,3.05,11.46,3.41,16.62.84.63-.02,1.29-.1,2.03-.26,4.86-1.05,12.33-5.19,18.1-8.56.18.67.46,1.29.83,1.84l-2.32,2.79c.05,0,.1,0,.15,0-1.3,1.68-2.51,3.44-3.61,5.26-.1.17-.2.34-.31.51-1.12,1.9-2.13,3.86-3.05,5.86-.1.21-.19.42-.28.64-.44.99-.86,1.98-1.25,2.99,0,0,0,.01,0,.02-.39,1.01-.75,2.03-1.09,3.06-.08.24-.16.49-.24.74-.33,1.02-.65,2.04-.93,3.07-1.49,5.36-2.43,10.82-3.06,16.33-.41,3.56-.68,7.14-.89,10.73h-39.51c-3.01,0-5.45,2.35-5.45,5.25s2.44,5.25,5.45,5.25h8.09v12.7c0,.86.72,1.56,1.62,1.56h21.98c-.89,0-1.62.7-1.62,1.56v118.89c0,.86.72,1.56,1.62,1.56h1.79c-.02.41-.03.81-.05,1.22h68.95c-8.47-40.84-15.58-81.95-21.3-123.23h3.72c.62,2.1,1.25,4.19,1.87,6.29.21.71.42,1.43.63,2.14.63,2.12,1.25,4.24,1.88,6.36.21.72.42,1.43.63,2.15,1.87,6.37,3.72,12.75,5.55,19.14.39,1.38.79,2.76,1.18,4.14.4,1.42.8,2.83,1.2,4.25.42,1.5.84,3,1.26,4.5.38,1.37.76,2.75,1.14,4.13.43,1.54.85,3.08,1.28,4.62.37,1.36.74,2.73,1.11,4.09.42,1.56.84,3.12,1.26,4.67.36,1.35.72,2.7,1.08,4.05.42,1.58.84,3.17,1.25,4.76.35,1.33.69,2.66,1.04,3.99.42,1.61.83,3.23,1.24,4.84.33,1.31.66,2.61.99,3.92.42,1.66.83,3.33,1.24,5,.31,1.26.62,2.51.93,3.77.42,1.75.84,3.5,1.26,5.25.28,1.19.57,2.37.85,3.56.46,1.95.9,3.9,1.35,5.86.22.98.45,1.96.67,2.94.66,2.94,1.31,5.88,1.95,8.83h66.6c-5.24-15.36-12.81-29.75-19.28-44.98-12.63-29.73-20.73-52.31-29.5-78.25h69.7c-.89,0-1.62.7-1.62,1.56v118.89c0,.86.72,1.56,1.62,1.56h3.47c.89,0,1.62-.7,1.62-1.56v-118.89c0-.86-.72-1.56-1.62-1.56h25.94c.89,0,1.62-.7,1.62-1.56v-12.7h7.28c3.01,0,5.45-2.35,5.45-5.25,0-.67-.14-1.3-.38-1.88,2.53,1.24,5.03,2.57,7.19,4.31,2.26,1.82,4.15,4.11,4.18,6.99.03,2.83-1.45,5.48-3.2,7.71-3.28,4.18-8.2,8.16-7.86,13.81.07,1.19.43,2.33,1.09,3.36.14.21.49.02.36-.19-1.56-2.45-1.18-5.46,0-7.98,1.23-2.64,3.37-4.81,5.3-7.02,1.85-2.12,3.58-4.39,4.36-7.06.75-2.57.34-5.16-1.34-7.34ZM330.91,186.78c.58.29,1.17.57,1.75.86h-2.92c.61-.27,1.01-.56,1.17-.86ZM308.44,126.55c-.42-1.75-.99-3.49-1.73-5.2l8.22,2.32c-2.28.7-4.47,1.67-6.48,2.89ZM319.75,123.01c1.22-.15,2.46-.23,3.69-.19,2.8.1,5.79.83,7.82,2.72.31.29.58.61.84.95l-12.34-3.48ZM319.55,150.38c-.76-1.27-1.28-2.68-.91-4.14.37-1.41,1.35-2.62,2.33-3.72,1.92-2.13,4.26-3.9,6.87-5.27,1.05-.56,2.18-1.11,3.18-1.79l-9.62,17.78c-.59-.97-1.27-1.88-1.85-2.86ZM322.22,156.03c.79,2.55.7,5.32-.3,7.81-1.71,4.24-6.59,8.53-4.68,13.41.84,2.13,2.77,3.67,4.76,4.88.28.17.57.33.85.49-3.88-.53-8.9-.89-14.48-1.01l13.85-25.58ZM128.13,247.39c-.08,1.93-.16,3.86-.24,5.79v-39.23c0-.86-.72-1.56-1.62-1.56h3.28c-.47,11.66-.95,23.33-1.42,34.99Z"/>
      <g>
        <g>
          <path class="cls-27" d="M305.29,84.14l-1.14-3.34c-.75-2.2-2.48-3.93-4.68-4.68l-3.34-1.14,3.41-1.24c2.1-.77,3.75-2.42,4.52-4.52l1.24-3.41.87,2.73c.84,2.65,2.92,4.72,5.56,5.56l2.73.87-2.81,1.11c-2.4.95-4.09,1.71-5.25,5.25l-1.11,2.81Z"/>
          <path class="cls-27" d="M326.42,95.73c-2.57,0-4.66-2.09-4.66-4.66s2.09-4.66,4.66-4.66,4.66,2.09,4.66,4.66-2.09,4.66-4.66,4.66ZM326.42,87.8c-1.8,0-3.26,1.46-3.26,3.26s1.46,3.26,3.26,3.26,3.26-1.46,3.26-3.26-1.46-3.26-3.26-3.26Z"/>
          <path class="cls-27" d="M329.36,70.47c-1.14,0-2.06-.92-2.06-2.06s.92-2.06,2.06-2.06,2.06.92,2.06,2.06-.92,2.06-2.06,2.06ZM329.36,66.97c-.79,0-1.44.65-1.44,1.44s.65,1.44,1.44,1.44,1.44-.65,1.44-1.44-.65-1.44-1.44-1.44Z"/>
        </g>
        <g>
          <rect class="cls-15" x="66.6" y="2.4" width="27.03" height="94.17" transform="translate(31.56 -31.2) rotate(27.26)"/>
          <path class="cls-16" d="M64.47,85.26c-.67,1.3-2.26,1.81-3.56,1.14-1.3-.67-1.81-2.26-1.14-3.56.67-1.3,2.26-1.81,3.56-1.14,1.3.67,1.81,2.26,1.14,3.56Z"/>
          <rect class="cls-3" x="86.85" y="9.09" width="21.57" height="12.04" transform="translate(17.77 -43.04) rotate(27.26)"/>
          <rect class="cls-6" x="79.85" y="22.68" width="21.57" height="12.04" transform="translate(23.21 -38.33) rotate(27.26)"/>
          <rect class="cls-8" x="72.85" y="36.26" width="21.57" height="12.04" transform="translate(28.66 -33.61) rotate(27.26)"/>
          <rect class="cls-5" x="65.85" y="49.85" width="21.57" height="12.04" transform="translate(34.1 -28.9) rotate(27.26)"/>
          <rect class="cls-4" x="58.85" y="63.43" width="21.57" height="12.04" transform="translate(39.54 -24.18) rotate(27.26)"/>
          <g>
            <rect class="cls-15" x="48.6" width="27.03" height="94.17"/>
            <circle class="cls-16" cx="61.95" cy="86.05" r="2.64"/>
            <rect class="cls-22" x="51.16" y="2.48" width="21.57" height="12.04"/>
            <rect class="cls-13" x="51.16" y="17.77" width="21.57" height="12.04"/>
            <rect class="cls-23" x="51.16" y="33.05" width="21.57" height="12.04"/>
            <rect class="cls-24" x="51.16" y="48.33" width="21.57" height="12.04"/>
            <rect class="cls-25" x="51.16" y="63.61" width="21.57" height="12.04"/>
          </g>
        </g>
        <g>
          <g>
            <path class="cls-27" d="M72.8,125.28c-5.35,0-9.71-4.35-9.71-9.71s4.35-9.71,9.71-9.71,9.71,4.35,9.71,9.71-4.35,9.71-9.71,9.71ZM72.8,106.35c-5.09,0-9.22,4.14-9.22,9.22s4.14,9.22,9.22,9.22,9.22-4.14,9.22-9.22-4.14-9.22-9.22-9.22Z"/>
            <g>
              <path class="cls-27" d="M72.7,103.33v23.49c0,.32,0,.64,0,.96,0,.01,0,.03,0,.04,0,.47.74.48.74,0v-23.49c0-.32,0-.64,0-.96,0-.01,0-.03,0-.04,0-.47-.74-.48-.74,0h0Z"/>
              <path class="cls-27" d="M85.31,115.21h-23.49c-.32,0-.64,0-.96,0-.01,0-.03,0-.04,0-.47,0-.48.74,0,.74h23.49c.32,0,.64,0,.96,0,.01,0,.03,0,.04,0,.47,0,.48-.74,0-.74h0Z"/>
            </g>
          </g>
          <g>
            <rect class="cls-40" x="19.65" y="127.84" width="57.77" height="53.79"/>
            <path class="cls-27" d="M51.74,135.27h9.49c.64,0,1.19.46,1.3,1.09l.7,3.89c.39,2.18,2.29,3.76,4.5,3.76h0l-.41-9.13c-.08-1.69-1.47-3.02-3.16-3.02h-31.07c-1.78,0-3.25,1.4-3.33,3.19l-.4,8.97h0c2.21,0,4.11-1.59,4.5-3.76l.73-4.08c.09-.52.54-.89,1.07-.89h9.68c.12,5.91.13,11.85.13,17.75v3.41c0,5.97,0,11.88-.13,17.68l-4.33.46c-1.54.17-2.72,1.47-2.72,3.02h20.48c0-1.55-1.17-2.86-2.72-3.02l-4.33-.46c-.12-5.89-.13-11.81-.13-17.68v-3.41c0-5.99,0-11.93.13-17.75Z"/>
          </g>
          <g class="cls-33">
            <g>
              <path class="cls-15" d="M28.89,139.4h-14.18c-.14,0-.27-.06-.36-.16-.09-.1-.13-.24-.11-.38l.8-5.2c.04-.23.23-.4.47-.4h11.74c.22,0,.42.16.46.38l1.18,5.76ZM14.83,138.83h13.35l-1.02-4.99h-11.56l-.77,4.99ZM27.15,133.75h0s0,0,0,0ZM15.61,133.75h0s0,0,0,0Z"/>
              <path class="cls-15" d="M27.16,132.05h-11.59c-.25,0-.47-.15-.57-.38l-6.5-15.86c-.08-.19-.06-.4.05-.57l11.89-18.45c.15-.23.43-.34.69-.26.27.08.44.32.44.59v16.54l-.22.06c-.59.15-1.01.69-1.01,1.3,0,.74.6,1.34,1.34,1.34s1.34-.6,1.34-1.34c0-.6-.4-1.13-.97-1.29l-.21-.06v-16.5c0-.28.18-.52.45-.59.27-.08.55.04.69.28l11.04,18.25c.1.16.12.37.05.55l-6.36,16.01c-.1.24-.32.39-.57.39ZM20.93,97.1l-11.89,18.46,6.5,15.89,11.63.03,6.4-16.03v-.04s-11.04-18.25-11.04-18.25l-.08.02v16.08c.71.29,1.18.99,1.18,1.77,0,1.06-.86,1.92-1.92,1.92s-1.92-.86-1.92-1.92c0-.8.49-1.5,1.22-1.79v-16.11l-.08-.02Z"/>
            </g>
            <path class="cls-15" d="M39.43,96.15c-19.38-15.5-35.13-.18-35.29-.02l-.41-.41c.16-.16,16.26-15.85,36.06-.02l-.36.45Z"/>
            <path class="cls-15" d="M4.5,96.33c0,.57-.46,1.04-1.04,1.04s-1.04-.46-1.04-1.04.46-1.04,1.04-1.04,1.04.46,1.04,1.04Z"/>
            <path class="cls-15" d="M40.65,96.33c0,.57-.46,1.04-1.04,1.04s-1.04-.46-1.04-1.04.46-1.04,1.04-1.04,1.04.46,1.04,1.04Z"/>
            <rect class="cls-15" x="20.9" y="88" width="1.75" height="1.75"/>
          </g>
        </g>
        <g>
          <rect class="cls-15" x="149.34" y="5.07" width="141.11" height="105.54"/>
          <g>
            <rect class="cls-27" x="149.34" y="5.07" width="141.11" height="7.35"/>
            <circle class="cls-9" cx="153.25" cy="8.46" r="1.23"/>
            <circle class="cls-22" cx="158.43" cy="8.46" r="1.23"/>
            <circle class="cls-26" cx="163.61" cy="8.46" r="1.23"/>
          </g>
          <g>
            <rect class="cls-29" x="171.72" y="22.86" width="93.56" height="69.98"/>
            <g>
              <g>
                <g>
                  <path class="cls-44" d="M233.5,99h-13.25c-.13,0-.25-.06-.33-.15-.08-.1-.12-.23-.1-.35l.75-4.86c.03-.22.22-.37.44-.37h10.97c.21,0,.39.15.43.35l1.1,5.39ZM220.36,98.46h12.48l-.95-4.66h-10.81l-.72,4.66ZM231.87,93.72h0s0,0,0,0ZM221.09,93.71h0s0,0,0,0Z"/>
                  <path class="cls-44" d="M231.89,92.13h-10.83c-.23,0-.44-.14-.53-.36l-6.08-14.82c-.07-.17-.05-.37.05-.53l11.12-17.25c.14-.22.4-.31.65-.24.25.07.41.3.41.55v15.46l-.2.05c-.55.14-.94.64-.94,1.21,0,.69.56,1.26,1.26,1.26s1.26-.56,1.26-1.26c0-.56-.37-1.05-.91-1.21l-.19-.06v-15.42c0-.26.17-.49.42-.56.25-.07.51.03.65.26l10.32,17.06c.09.15.11.34.04.51l-5.94,14.96c-.09.22-.3.36-.54.36ZM226.07,59.46l-11.12,17.25,6.07,14.86,10.87.02,5.98-14.99v-.03s-10.32-17.06-10.32-17.06l-.07.02v15.03c.66.28,1.11.93,1.11,1.66,0,.99-.8,1.79-1.79,1.79s-1.79-.8-1.79-1.79c0-.75.46-1.4,1.14-1.67v-15.06l-.07-.02Z"/>
                </g>
                <path class="cls-44" d="M243.36,58.57c-18.11-14.49-32.84-.17-32.99-.02l-.38-.38c.15-.15,15.2-14.82,33.7-.02l-.34.42Z"/>
                <path class="cls-44" d="M210.7,58.74c0,.53-.43.97-.97.97s-.97-.43-.97-.97.43-.97.97-.97.97.43.97.97Z"/>
                <circle class="cls-44" cx="243.53" cy="58.74" r=".97"/>
                <rect class="cls-44" x="226.03" y="50.95" width="1.64" height="1.64"/>
              </g>
              <g>
                <rect class="cls-44" x="201.59" y="40.95" width="10.67" height=".53"/>
                <path class="cls-44" d="M201.72,42.31h-2.2v-2.2h2.2v2.2ZM200.05,41.79h1.14v-1.14h-1.14v1.14Z"/>
                <path class="cls-44" d="M214.19,42.31h-2.2v-2.2h2.2v2.2ZM212.52,41.79h1.14v-1.14h-1.14v1.14Z"/>
                <rect class="cls-44" x="205.12" y="39.48" width="3.48" height="3.48"/>
              </g>
              <g>
                <path class="cls-44" d="M253,70.54c4.91-6.13,4.65-11.61,3.57-15.13-1.17-3.82-3.54-6.22-3.56-6.24l.23-.23s2.44,2.47,3.64,6.36c1.11,3.59,1.37,9.19-3.63,15.44l-.25-.2Z"/>
                <path class="cls-44" d="M252.88,49.4c-.35,0-.63-.28-.63-.63s.28-.63.63-.63.63.28.63.63-.28.63-.63.63Z"/>
                <path class="cls-44" d="M252.88,71.27c-.35,0-.63-.28-.63-.63s.28-.63.63-.63.63.28.63.63-.28.63-.63.63Z"/>
                <rect class="cls-44" x="256.86" y="59.32" width="1.06" height="1.06" transform="translate(317.24 -197.54) rotate(90)"/>
              </g>
            </g>
          </g>
        </g>
        <g>
          <path class="cls-9" d="M73.13,226.17c-2.6,3.85-4.95,7.86-7.02,12.02-2.08,4.16-3.88,8.45-5.41,12.84-1.52,4.39-2.77,8.87-3.72,13.42-.95,4.55-1.62,9.16-1.98,13.79-.36,4.63-.42,9.28-.17,13.92.03.58.07,1.16.11,1.74.02.34.56.34.54,0-.32-4.61-.34-9.25-.06-13.86.28-4.63.87-9.24,1.75-13.8.88-4.54,2.05-9.03,3.49-13.42,1.45-4.41,3.19-8.72,5.2-12.9,1.99-4.15,4.26-8.17,6.77-12.03.32-.49.64-.97.96-1.45.19-.29-.27-.55-.46-.27h0Z"/>
          <path class="cls-9" d="M36.33,223.63c2.02,4.2,3.75,8.53,5.23,12.95,1.47,4.4,2.68,8.89,3.69,13.42,1.03,4.66,1.84,9.36,2.49,14.08.67,4.9,1.15,9.83,1.51,14.76.36,4.91.61,9.84.8,14.76.02.61.05,1.22.07,1.84.01.34.55.35.54,0-.18-4.97-.41-9.94-.75-14.9-.34-4.96-.79-9.91-1.42-14.85-.6-4.74-1.37-9.46-2.35-14.14-.96-4.59-2.13-9.13-3.56-13.6-1.42-4.44-3.08-8.8-5.04-13.03-.24-.52-.49-1.05-.74-1.57-.15-.31-.61-.04-.46.27h0Z"/>
          <path class="cls-9" d="M64.75,327.5c-.02-4.96-.23-9.92-.61-14.87-.38-4.92-.93-9.83-1.62-14.72-.7-4.92-1.55-9.81-2.52-14.68-.97-4.85-2.07-9.68-3.27-14.48-1.21-4.82-2.52-9.62-3.91-14.39-.18-.6-.35-1.2-.53-1.8-.1-.33-.62-.19-.52.14,1.41,4.74,2.74,9.51,3.96,14.3,1.23,4.79,2.35,9.61,3.36,14.46,1,4.84,1.88,9.71,2.62,14.59.74,4.91,1.33,9.83,1.75,14.78.42,4.92.67,9.85.74,14.79,0,.62.01,1.25.02,1.87,0,.34.54.35.54,0h0Z"/>
          <g>
            <path class="cls-27" d="M60.6,290.96c-3.56.17-9.06,0-13.4-.18-3.24-.14-4.87,3.9-2.41,6.02.02.02.04.03.06.05.23.2.48.43.49.73.01.28-.19.52-.37.73-4.51,5.16-7.25,12.01-6.83,18.86.42,6.85,4.19,13.55,10.17,16.9h17.52c5.98-3.35,9.76-10.06,10.17-16.9.42-6.85-2.31-13.7-6.83-18.86-.18-.21-.38-.45-.37-.73.01-.3.26-.53.49-.73.02-.02.04-.03.06-.05,2.46-2.12.83-6.16-2.41-6.02-4.34.19-9.85.36-13.4.18"/>
            <path class="cls-32" d="M69.18,298.3c-.18-.21-.38-.45-.37-.73.01-.3.26-.53.49-.73.02-.02.04-.03.06-.05,1.26-1.09,1.44-2.67.89-3.94-.21.23-.45.44-.74.63-3.44,2.28-7.37,3.13-11.44,3.43-3.6.26-7.41.39-11.11.24.63.74,3.24.82,4.15.98,2.62.45,5.45.46,8.01,1.22,3.74,1.1,6.95,3.46,8.58,7.05,2.95,6.5,1.49,16.2-3.12,21.62-3.84,4.51-10.81,6.33-16.84,5.7.19.12.38.24.58.35h17.52c5.98-3.35,9.76-10.06,10.17-16.9.42-6.85-2.31-13.7-6.83-18.86Z"/>
          </g>
          <path class="cls-14" d="M85.64,254.9c-2.8-5.75-6.54-11.06-8.67-17.09-1.54-4.36-2.3-9.2-5.36-12.66-1.23-1.39-2.76-2.47-4.34-3.45-.12.08-.36.19-.36.19-1.58.37-2.6-1.55-3.81-2.62-2.21-1.95-6.1-.85-7.48,1.75s-.5,6.01,1.55,8.12c1.48,1.53,3.51,2.55,4.59,4.38.87,1.49,1,3.33,1.87,4.81,1.84,3.14,6.32,3.76,8.45,6.71,2.15,2.97,1.35,7.56,3.98,10.11,1.94,1.88,5.13,1.97,7.06,3.86,2.51,2.44,1.98,6.93,4.53,9.33.29.27.62.51,1,.59.16.03.33.04.48.01.22-4.77-1.36-9.67-3.49-14.04Z"/>
          <path class="cls-39" d="M90.41,259.55c-1.03-2.59-2.32-5.29-1.86-8.04.36-2.09,1.72-4.01,1.58-6.13-.21-3.22-3.7-5.25-4.74-8.31-1.22-3.58,1.16-7.68-.17-11.22-1.02-2.73-4.01-4.37-5-7.11-.32-.88-.41-1.83-.49-2.76-.27-3.21-.56-6.73-2.82-9.03-2.4-2.43-6.64-2.58-9.38-.55-2.74,2.04-3.85,5.91-2.89,9.19.62,2.12,1.99,4,2.61,6.09,1.58.99,3.11,2.06,4.34,3.45,3.06,3.46,3.83,8.31,5.36,12.66,2.13,6.03,5.87,11.34,8.67,17.09,2.13,4.37,3.71,9.27,3.49,14.04.69-.1,1.31-.69,1.68-1.32,1.4-2.41.63-5.47-.4-8.07Z"/>
          <path class="cls-14" d="M23.92,270.31c2.8-5.75,6.54-11.06,8.67-17.09,1.54-4.36,2.3-9.2,5.36-12.66,1.23-1.39,2.76-2.47,4.34-3.45.12.08.36.19.36.19,1.58.37,2.6-1.55,3.81-2.62,2.21-1.95,6.11-.85,7.48,1.75s.5,6.01-1.55,8.12c-1.48,1.53-3.51,2.55-4.59,4.38-.87,1.49-1,3.33-1.87,4.81-1.84,3.14-6.32,3.76-8.45,6.71-2.15,2.97-1.35,7.56-3.98,10.11-1.94,1.88-5.13,1.97-7.06,3.86-2.51,2.44-1.98,6.93-4.53,9.33-.29.27-.62.51-1,.59-.16.03-.33.04-.48.01-.22-4.77,1.36-9.67,3.49-14.04Z"/>
          <path class="cls-39" d="M19.15,274.96c1.03-2.59,2.32-5.29,1.86-8.04-.36-2.09-1.72-4.01-1.58-6.13.21-3.22,3.7-5.25,4.74-8.31,1.22-3.58-1.16-7.68.17-11.22,1.02-2.73,4.01-4.37,5-7.11.32-.88.41-1.83.49-2.76.27-3.21.56-6.73,2.82-9.03,2.4-2.43,6.64-2.58,9.38-.55,2.74,2.04,3.85,5.91,2.89,9.19-.62,2.12-1.99,4-2.61,6.09-1.58.99-3.11,2.06-4.34,3.45-3.06,3.46-3.83,8.31-5.36,12.66-2.13,6.03-5.87,11.34-8.67,17.09-2.13,4.37-3.71,9.27-3.49,14.04-.69-.1-1.31-.69-1.68-1.32-1.4-2.41-.63-5.47.4-8.07Z"/>
          <path class="cls-14" d="M63.53,280.82c-.63-4.57-.51-9.26-1.65-13.73-.82-3.23-2.31-6.44-1.86-9.75.18-1.33.67-2.59,1.22-3.81.11,0,.29-.03.29-.03,1.09-.41.94-1.97,1.24-3.1.55-2.05,3.32-2.96,5.19-1.95s2.71,3.4,2.32,5.5c-.28,1.51-1.08,2.94-.99,4.47.07,1.24.74,2.39.81,3.64.15,2.62-2.28,4.79-2.38,7.41-.1,2.65,2.22,5.08,1.66,7.66-.41,1.91-2.29,3.24-2.69,5.15-.53,2.47,1.59,4.95,1.02,7.42-.06.28-.17.55-.36.75-.08.09-.18.15-.28.2-2.04-2.78-3.06-6.35-3.53-9.82Z"/>
          <path class="cls-39" d="M62.53,285.53c-.42-1.97-.73-4.11-2.11-5.57-1.05-1.11-2.64-1.72-3.4-3.05-1.16-2.02.12-4.63-.48-6.89-.7-2.64-3.77-4.14-4.39-6.8-.48-2.05.65-4.23.15-6.27-.16-.66-.49-1.26-.82-1.85-1.12-2.03-2.36-4.26-1.93-6.55.46-2.42,2.95-4.21,5.41-4.09,2.46.12,4.68,2,5.41,4.35.48,1.52.41,3.2.87,4.7-.55,1.23-1.04,2.49-1.22,3.81-.45,3.3,1.03,6.52,1.86,9.75,1.14,4.47,1.03,9.16,1.65,13.73.47,3.47,1.49,7.05,3.53,9.82-.46.22-1.06.11-1.54-.12-1.81-.89-2.57-3.03-3-5Z"/>
        </g>
        <g>
          <g>
            <rect class="cls-30" x="194.81" y="160.37" width="24.78" height="22.29"/>
            <rect class="cls-3" x="186.14" y="182.67" width="42.13" height="4.22" rx="1.81" ry="1.81"/>
            <rect class="cls-3" x="158.88" y="101.54" width="96.21" height="64.55" rx="3.05" ry="3.05"/>
            <path class="cls-29" d="M165.01,105.77h83.7c.93,0,1.69.76,1.69,1.69v46.19c0,.93-.76,1.69-1.69,1.69h-83.7c-.93,0-1.69-.76-1.69-1.69v-46.19c0-.93.76-1.69,1.69-1.69Z"/>
            <g class="cls-38">
              <polygon class="cls-7" points="168.99 155.34 205.24 105.77 222.66 105.77 184.09 155.34 168.99 155.34"/>
              <polygon class="cls-7" points="189.55 155.34 225.34 105.77 232.85 105.77 197.49 155.34 189.55 155.34"/>
            </g>
          </g>
          <g>
            <g>
              <path class="cls-15" d="M321.83,183.74c-.3-2.04-11.54-3.68-25.36-3.68s-25.06,1.64-25.36,3.68h-.01v1.34h.02c.37,2.03,11.58,3.66,25.36,3.66s24.99-1.63,25.36-3.66h.02v-1.34h-.01Z"/>
              <path class="cls-17" d="M276.41,184.82c.94.14,1.88.26,2.82.37,2.42.29,4.84.53,7.27.73,3.39.27,6.79.45,10.2.51,3.8.07,7.61,0,11.41-.28,3.7-.28,7.41-.76,11.01-1.63.42-.1.84-.21,1.26-.33.32-.09.18-.56-.14-.47-3.54.96-7.19,1.51-10.85,1.84-3.79.34-7.6.44-11.4.41-3.44-.04-6.88-.19-10.31-.44-2.56-.19-5.13-.43-7.68-.72-1.13-.13-2.26-.31-3.4-.44-.02,0-.03,0-.05,0-.32-.05-.46.42-.14.47h0Z"/>
            </g>
            <path class="cls-3" d="M293.81,131.24c3.2-4.13,7.77-7.24,12.88-8.81,2.53-.78,5.22-1.22,7.88-1.12,2.7.1,5.58.83,7.52,2.72,1.69,1.64,2.68,4.16,2.03,6.44-.74,2.58-3.42,3.79-5.65,5.01-2.38,1.31-4.52,2.99-6.31,4.98-1.69,1.89-3.28,4.14-2.51,6.74.36,1.2,1.07,2.27,1.75,3.31.76,1.16,1.46,2.33,1.9,3.65.87,2.64.82,5.55-.19,8.16-1.65,4.24-6.35,8.53-4.5,13.41.8,2.13,2.66,3.67,4.58,4.88,2.49,1.58,5.19,2.9,7.81,4.26,2.79,1.45,5.62,2.83,8.43,4.23,2.69,1.34,5.37,2.78,7.67,4.69,2.18,1.82,4,4.11,4.02,6.99.02,2.83-1.4,5.48-3.08,7.71-3.16,4.18-7.9,8.16-7.56,13.81.07,1.19.41,2.33,1.04,3.36.13.21.48.02.35-.19-1.51-2.45-1.14-5.46,0-7.98,1.19-2.64,3.24-4.81,5.1-7.02,1.78-2.12,3.45-4.39,4.2-7.06.72-2.57.33-5.16-1.29-7.34-1.63-2.19-4.01-3.85-6.38-5.25-2.63-1.54-5.42-2.81-8.14-4.18-2.96-1.48-5.89-3.01-8.8-4.58-2.28-1.23-4.71-2.49-6.37-4.48-1.73-2.08-1.9-4.63-.95-7.07.95-2.43,2.59-4.54,3.73-6.87,1.16-2.36,1.61-4.95,1.22-7.54-.2-1.35-.63-2.66-1.26-3.88-.61-1.17-1.42-2.23-2.08-3.37-.73-1.27-1.24-2.68-.87-4.14.35-1.41,1.3-2.62,2.25-3.72,1.85-2.13,4.1-3.9,6.61-5.27,2.08-1.14,4.46-2.26,5.45-4.5.89-2.02.39-4.38-.81-6.18-2.91-4.37-9.16-4.61-13.93-3.72-5.12.95-9.93,3.43-13.61,6.97-.89.85-1.7,1.77-2.45,2.74-.15.2.19.39.35.19h0Z"/>
            <path class="cls-17" d="M302.24,181.51c-.06-.75-2.44-1.36-5.37-1.36s-5.31.6-5.37,1.36h0v.49h0c.08.75,2.45,1.35,5.37,1.35s5.29-.6,5.37-1.35h0v-.49h0Z"/>
            <path class="cls-17" d="M299.38,181.39l-1.79-.86,26.5-50.85c.27-.51.28-1.1.05-1.63-.23-.52-.69-.92-1.26-1.09l-29.54-8.65.58-1.84,29.54,8.65c1.13.33,2.05,1.12,2.52,2.16.47,1.04.43,2.23-.1,3.24l-26.5,50.85Z"/>
            <path class="cls-3" d="M286.78,108.81s-19,.81-28.67,29.55c-.47,1.4-.12,2.94.92,4.02,4.21,4.39,16.71,14.54,37.59,8,1.48-.46,2.59-1.65,2.95-3.11,1.64-6.68,4.93-26.13-8.51-37.72"/>
            <path class="cls-30" d="M293.82,112.31c2.33,6.16,2.02,13.74,1.23,20.17-.72,5.9-3,11.81-8.74,14.78-6.23,3.22-15.49,2.13-22.98-1.17,6.2,4.49,17.27,9.29,33.29,4.28,1.48-.46,2.59-1.65,2.95-3.11,1.51-6.17,4.43-23.25-5.74-34.95Z"/>
            <path class="cls-17" d="M293.1,109.1c0,2.14-1.81,3.88-4.05,3.88s-4.05-1.74-4.05-3.88,1.81-3.88,4.05-3.88,4.05,1.74,4.05,3.88Z"/>
          </g>
          <g>
            <g class="cls-37">
              <path class="cls-27" d="M316.71,211.88H100.26c-1.41,0-2.56-1.15-2.56-2.56v-13.35c0-1.41,1.15-2.56,2.56-2.56h216.45c1.41,0,2.56,1.15,2.56,2.56v13.35c0,1.41-1.15,2.56-2.56,2.56ZM100.26,195.41c-.31,0-.56.25-.56.56v13.35c0,.31.25.56.56.56h216.45c.31,0,.56-.25.56-.56v-13.35c0-.31-.25-.56-.56-.56H100.26Z"/>
              <path class="cls-27" d="M291.74,333.89h-3.34c-1.41,0-2.56-1.15-2.56-2.56v-118.89c0-1.41,1.15-2.56,2.56-2.56h3.34c1.41,0,2.56,1.15,2.56,2.56v118.89c0,1.41-1.15,2.56-2.56,2.56ZM288.4,211.88c-.31,0-.56.25-.56.56v118.89c0,.31.25.56.56.56h3.34c.31,0,.56-.25.56-.56v-118.89c0-.31-.25-.56-.56-.56h-3.34Z"/>
              <path class="cls-27" d="M124.76,333.89h-3.34c-1.41,0-2.56-1.15-2.56-2.56v-118.89c0-1.41,1.15-2.56,2.56-2.56h3.34c1.41,0,2.56,1.15,2.56,2.56v118.89c0,1.41-1.15,2.56-2.56,2.56ZM121.42,211.88c-.31,0-.56.25-.56.56v118.89c0,.31.25.56.56.56h3.34c.31,0,.56-.25.56-.56v-118.89c0-.31-.25-.56-.56-.56h-3.34Z"/>
            </g>
            <path class="cls-9" d="M325.27,196.62H90.92c-2.9,0-5.25-2.35-5.25-5.25h0c0-2.9,2.35-5.25,5.25-5.25h234.35c2.9,0,5.25,2.35,5.25,5.25h0c0,2.9-2.35,5.25-5.25,5.25Z"/>
          </g>
        </g>
        <g>
          <g>
            <path class="cls-44" d="M171.56,32.78c4.94-1.05,10.42,1.47,12.85,5.89.77,1.41,1.27,2.98,2.24,4.26,1.94,2.53,5.32,3.36,8.01,5.07,4.93,3.13,7.38,9.69,5.71,15.28-1.26,4.2-4.55,7.61-8.44,9.65-3.89,2.04-8.33,2.82-12.71,2.97-2.56.09-5.27-.07-7.43-1.45-1.82-1.17-3.01-3.08-4.03-4.99"/>
            <path class="cls-44" d="M164.35,31.44c-2.89.96-5.38,3.07-6.79,5.77-1.07,2.03-1.56,4.39-3.05,6.13-1.07,1.24-2.54,2.05-3.93,2.92-2.11,1.33-4.14,2.91-5.42,5.06-1.28,2.14-1.68,4.93-.52,7.14.69,1.32,1.94,2.57,1.67,4.03-.13.73-.63,1.33-1.12,1.89-1.43,1.63-3.04,3.42-3.03,5.59,0,1.69,1.06,3.26,2.43,4.24,1.38.99,3.05,1.47,4.71,1.79,5.36,1.05,11.44.4,15.39-3.38,3.55-3.4,4.67-8.55,5.61-13.37"/>
            <g>
              <path class="cls-41" d="M166.04,57.32c.81,2.72,2.27,7.21,1.24,9.86-1.03,2.65-2.67,4.77-5.11,6.23.92,1.23,2.57,2.45,4.04,2.87,4.29,1.22,7.98,1.5,12.28.32,1.68-.46,4.14-1.98,5.48-3.1-1.97-1.29-3.97-2.62-5.39-4.49-1.81-2.41-3.32-5.69-3.42-8.7-.1-3.01,0-5.06.46-7.76"/>
              <path class="cls-43" d="M167.65,64.61s4.87-4.09,6.69-9.27-7.31,6-7.31,6l.62,3.27Z"/>
            </g>
            <path class="cls-41" d="M162,35.3c-2.86,2.59-4.68,6.31-4.96,10.15-.09,1.24-.03,2.5-.14,3.74-.09,1.02-.3,2.04-.33,3.07-.03,1.02.12,2.03.32,3.02.42,2.08,1.08,4.11,1.96,6.04.23.51.49,1.02.9,1.4,1.07,1,2.77.77,4.18.38,2.25-.62,4.45-1.51,6.32-2.91,1.87-1.4,3.38-3.35,3.97-5.6l1.28-8.87-2.43-8.57"/>
            <g>
              <path class="cls-41" d="M173.72,49.21c.43-.84,1.09-1.6,1.96-1.97.87-.37,1.97-.26,2.64.41.46.46.66,1.13.65,1.78,0,.65-.21,1.28-.48,1.87-.7,1.55-1.93,2.92-3.53,3.49-.42.15-.89.24-1.29.07s-1.51-1.7.05-5.64"/>
              <path class="cls-43" d="M173.05,53.84c.17.61.45.94.62,1.01.41.17.88.08,1.29-.07,1.6-.57,2.83-1.94,3.53-3.49.27-.59.47-1.22.48-1.87,0-.07-.03-.13-.03-.19-1.06,2.28-3.03,4.09-5.89,4.61Z"/>
            </g>
            <path class="cls-44" d="M160.77,34.66c-1.17,2.17-1.45,4.81-.77,7.18.24.85.64,1.7,1.34,2.23,1.93,1.44,5.11-.14,6.9,1.46.77.69,1.03,1.78,1.59,2.65.85,1.33,2.46,2.13,4.03,2.01,1-.08,1.95-.5,2.95-.51,1.16-.02,2.3.55,3.07,1.42s1.18,2.03,1.24,3.2c0,0,4.74-10.1,2.05-13.53"/>
            <path class="cls-43" d="M175.66,51.75c-.15.3-.39.56-.69.75-.04.03-.08.05-.13.05-.06,0-.11-.06-.15-.11-.2-.32-.09-.72.06-1.06.14-.3.3-.58.5-.85.22-.31.5-.6.86-.76.09-.04.2-.07.3-.05.23.05.28.34.2.55-.22.62-.52.74-.96,1.47"/>
            <g>
              <path class="cls-44" d="M159.09,45.29c-.24-.1-.5-.15-.76-.19-.28-.04-.56-.07-.84-.08-.28,0-.56,0-.84.04-.13.02-.26.05-.39.09-.17.05-.33.11-.48.2-.25.14-.48.32-.65.56-.02.02-.03.04-.04.07-.04.06-.05.13-.04.2,0,.04.02.07.04.1.02.03.04.05.07.07.06.04.13.06.2.04.07-.02.13-.05.17-.11.04-.06.08-.11.12-.16-.01.02-.03.03-.04.05.09-.1.19-.19.3-.27-.02.01-.04.03-.06.04.15-.1.32-.18.49-.24-.02,0-.04.02-.07.02.18-.06.37-.11.57-.13.05,0,.1,0,.15-.01-.02,0-.05,0-.07,0,.2-.01.4-.01.6,0,.21,0,.42.03.63.05.11.01.22.03.33.05-.02,0-.05,0-.07-.01.17.03.35.08.51.14.03.01.07.02.1.01.04,0,.07,0,.1-.03.06-.03.11-.09.13-.15.02-.07.02-.14-.02-.21-.01-.02-.03-.04-.04-.06-.03-.03-.07-.06-.11-.07h0Z"/>
              <path class="cls-44" d="M164.88,45.59c.31-.11.64-.17.97-.22.36-.05.72-.08,1.08-.09.36,0,.72,0,1.08.05.17.02.34.06.51.11.22.06.43.14.63.24.33.17.63.39.85.67.02.03.04.05.06.08.05.07.07.16.06.24,0,.04-.02.08-.05.11-.02.04-.05.06-.09.09-.08.04-.17.07-.26.04-.09-.02-.17-.07-.22-.14-.05-.07-.1-.14-.16-.2.02.02.04.04.06.06-.12-.12-.25-.23-.39-.32.02.02.05.03.07.05-.2-.12-.41-.22-.64-.29.03,0,.06.02.09.03-.24-.08-.49-.13-.74-.16-.06,0-.13-.01-.19-.02.03,0,.06,0,.09,0-.26-.02-.51-.02-.77-.01-.27,0-.54.03-.8.06-.14.02-.29.04-.43.06.03,0,.06-.01.09-.02-.22.04-.45.09-.66.17-.04.02-.09.02-.13.01-.05,0-.09-.01-.13-.03-.07-.04-.15-.11-.17-.18-.03-.08-.03-.17.01-.25.02-.02.03-.05.05-.07.04-.04.09-.07.14-.09h0Z"/>
              <path class="cls-43" d="M160.48,47.28c.03.13.06.26.08.39,0,.03,0,.06.01.09,0,.01,0,.03,0,.04,0,0,0,.04,0,.01,0-.02,0,0,0,.01,0,.07.02.13.02.2.03.26.03.53.03.79,0,.13-.01.26-.02.39,0,.07-.01.13-.02.2,0,.03,0,.06-.01.09,0,.03,0,0,0,0,0,0,0,.02,0,.03,0,.02,0,.04,0,.06-.04.26-.09.52-.16.77-.07.25-.15.5-.25.75-.01.03-.02.06-.04.09,0,.02.01-.03,0,0,0,0,0,.02-.01.02,0,.02-.01.03-.02.05-.03.06-.05.12-.08.18-.06.12-.12.23-.18.35-.13.23-.27.45-.42.67-.02.03-.04.05-.06.08,0,.01-.02.03-.03.04,0,0-.01.01-.02.02-.02.02.02-.02,0,0-.04.05-.08.1-.12.15-.04.05-.08.1-.13.15-.06.07-.12.13-.15.21-.07.18.08.32.21.43.11.1.23.18.36.26.24.14.52.24.79.29.08.01.15.02.23.03.08,0,.15-.07.15-.15,0-.09-.07-.14-.15-.15-.03,0-.07,0-.1-.01-.03,0,0,0,0,0,0,0-.02,0-.03,0-.02,0-.04,0-.06,0-.07-.01-.13-.03-.19-.04-.07-.02-.13-.04-.19-.06-.02,0-.03-.01-.05-.02,0,0-.01,0-.02,0,0,0-.04-.01-.01,0s-.01,0-.01,0h-.02s-.03-.02-.05-.03c-.12-.06-.24-.13-.35-.21-.01,0-.03-.02-.04-.03-.02-.01.03.02,0,0,0,0-.01,0-.02-.01-.03-.02-.05-.04-.08-.07-.02-.02-.05-.04-.07-.06,0,0-.01-.01-.02-.02,0,0,0,0,0,0-.01-.01,0-.01,0,0,0,0-.01-.02-.01-.02,0-.01,0-.01,0,0,0,.01,0,.01,0,0,0,.04,0,.02,0,0,0-.04,0,.02,0,0,0-.02-.01.02,0,0,0,0,0-.02.01-.02.01-.02,0,0,0,0,0,0,.01-.01.01-.02.01-.01.03-.03.04-.04.04-.05.09-.1.13-.15.09-.11.18-.22.26-.33.15-.21.3-.43.42-.65.26-.46.46-.95.61-1.45.15-.51.23-1.03.26-1.56s-.01-1.06-.11-1.58c-.01-.06-.03-.12-.04-.19-.02-.08-.11-.13-.18-.1-.08.03-.12.1-.1.18h0Z"/>
              <g class="cls-12">
                <path class="cls-11" d="M159.1,56.64c.2.82,1.69.88,2.21.74.51-.14.99-.39,1.47-.63l-2.45-.06-1.23-.05Z"/>
              </g>
              <path class="cls-44" d="M158.82,48.7c-.02.43-.28.77-.59.75-.31-.01-.54-.37-.52-.8.02-.43.28-.77.59-.75.31.01.54.37.52.8Z"/>
              <path class="cls-44" d="M166.21,48.69c-.02.43-.28.77-.59.75s-.54-.37-.52-.8c.02-.43.28-.77.59-.75s.54.37.52.8Z"/>
              <path class="cls-10" d="M169.96,53.57c-.05,1.13-1.24,2-2.66,1.94-1.42-.06-2.53-1.03-2.48-2.16s1.24-2,2.66-1.94c1.42.06,2.53,1.03,2.48,2.16Z"/>
            </g>
            <g>
              <path class="cls-22" d="M177.45,27.72c-3.35-.56-6.74-1.09-10.13-.88-3.39.21-6.83,1.22-9.42,3.41-1.19,1-2.22,2.34-2.34,3.88-.16,2.1,1.44,4.01,3.33,4.94s4.05,1.12,6.14,1.43c2.81.42,5.61,1.1,8.15,2.39,2.64,1.34,4.93,3.3,7.52,4.73,2.6,1.43,5.74,2.32,8.52,1.28,2.74-1.03,4.62-3.99,4.38-6.91-.11-1.39-.65-2.71-1.32-3.94-2.72-5.03-7.7-8.79-13.29-10.01"/>
              <g class="cls-35">
                <path class="cls-31" d="M192.28,38.05c-.15-.28-.33-.53-.49-.8-1.99,3.23-6.22,4.57-11.55,3.68-4.94-.83-9.37-1.55-14.4-1.87-3.34-.21-6.38-.77-9.37-1.98.62.84,1.48,1.54,2.41,2,1.89.93,4.05,1.12,6.14,1.43,2.81.42,5.61,1.1,8.15,2.39,2.64,1.34,4.93,3.3,7.52,4.73,2.6,1.43,5.74,2.32,8.52,1.28,2.74-1.03,4.62-3.99,4.38-6.91-.11-1.39-.65-2.71-1.32-3.94Z"/>
              </g>
              <path class="cls-31" d="M177.42,27.72c-.31.14-.62.33-.8.63-.17.3-.18.71.07.95.14.14.34.2.53.23.89.16,1.82-.14,2.7.06.37.08.73.25,1.11.3.19.02.45-.04.45-.23,0-.07-.04-.14-.08-.2-.32-.48-1.61-1.63-3.99-1.74"/>
              <path class="cls-22" d="M176.75,28.05c.52-1.41,1.32-2.72,2.36-3.81.31-.33.66-.65,1.11-.75.44-.1.98.12,1.09.56.08.35-.12.69-.32.99-.67.97-1.47,1.87-1.94,2.95-.14.31-.25.64-.47.9-.4.47-2.23.47-1.82-.84"/>
            </g>
          </g>
          <g>
            <g>
              <g>
                <path class="cls-9" d="M166.09,188.5c13.92,48.21,27.86,96.51,38.06,145.61h64.12c-5.04-15.36-12.33-29.75-18.56-44.98-12.78-31.25-20.74-54.6-29.7-82.25-7.67-23.69-19.08-45.98-30.97-67.86l-36.54-11.65c-10.14,7.61-16.46,19.44-19.73,31.69-3.27,12.25-3.79,25.04-4.28,37.71-.64,16.37-1.28,32.74-1.92,49.11-1.15,29.41-2.3,58.83-3.46,88.24h66.38c-9.63-48.22-17.45-96.8-23.38-145.61Z"/>
                <path class="cls-18" d="M133.8,297.2c-.15-18.82,0-37.64,0-56.46s-1.26-38.02.88-56.75c.99-8.66,3.22-16.62,5.93-24.87,2.62-7.97,5.23-16.04,5.05-24.52,0-.33.02-.63.06-.93-6.28,7.13-10.49,16.14-12.96,25.39-3.27,12.25-3.79,25.04-4.28,37.71-.64,16.37-1.28,32.74-1.92,49.11-1.15,29.41-2.3,58.83-3.46,88.24h14.69c-3.16-11.96-3.88-24.43-3.98-36.91Z"/>
                <path class="cls-18" d="M202.89,272.33c-9.86-24.29-22.48-47.32-33.16-71.24,12.69,44.03,25.11,88.19,34.42,133.01h21.06c-4.11-21.48-14.09-41.49-22.32-61.77Z"/>
              </g>
              <g class="cls-1">
                <g>
                  <rect class="cls-42" x="143.89" y="139.71" width="1" height="194.41" transform="translate(-4.18 2.6) rotate(-1.02)"/>
                  <rect class="cls-42" x="172.57" y="139.71" width="1" height="194.41" transform="translate(-4.18 3.11) rotate(-1.02)"/>
                  <rect class="cls-42" x="198.25" y="139.71" width="1" height="194.41" transform="translate(-4.17 3.56) rotate(-1.02)"/>
                  <rect class="cls-42" x="226.91" y="139.71" width="1" height="194.41" transform="translate(-4.17 4.07) rotate(-1.02)"/>
                  <rect class="cls-42" x="255.36" y="142.8" width="1" height="194.41" transform="translate(-4.22 4.58) rotate(-1.02)"/>
                  <path class="cls-42" d="M289.4,304.84c-7.26-.04-177.76-1.08-179.66-1.35l.14-.99-.07.5.07-.5c2.41.27,177.76,1.33,179.53,1.34v1Z"/>
                  <path class="cls-42" d="M289.4,270.37c-7.26-.04-177.76-1.08-179.66-1.35l.14-.99-.07.5.07-.5c2.41.27,177.76,1.33,179.53,1.34v1Z"/>
                  <path class="cls-42" d="M289.4,234.28c-7.26-.04-177.76-1.08-179.66-1.35l.14-.99-.07.5.07-.5c2.41.27,177.76,1.33,179.53,1.34v1Z"/>
                  <path class="cls-42" d="M289.4,198.95c-7.26-.04-177.76-1.08-179.66-1.35l.14-.99-.07.5.07-.5c2.41.27,177.76,1.33,179.53,1.34v1Z"/>
                  <path class="cls-42" d="M289.4,165.49c-7.26-.04-177.76-1.08-179.66-1.35l.14-.99-.07.5.07-.5c2.41.27,177.76,1.33,179.53,1.34v1Z"/>
                </g>
              </g>
            </g>
            <g>
              <path class="cls-44" d="M153.27,133.25c-3.46,6.16-5.9,12.9-7.19,19.85-.79,4.27-1.16,8.64-2.48,12.77-.13.41-.29.85-.64,1.1-.75.54-1.8-.11-2.34-.86-1.37-1.89-1.52-4.38-1.47-6.72.16-7.94,2.01-15.85,5.38-23.05"/>
              <path class="cls-44" d="M142.97,136.9c14.16-.15,28.33.61,42.4,2.26,1.6.19,3.64.16,4.31-1.28.27-.58.22-1.27.03-1.88-.86-2.76-4.09-3.97-6.94-4.65-9.33-2.2-19.07-2.73-28.59-1.55-2.44.3-4.93.74-7.08,1.93"/>
              <path class="cls-22" d="M162.96,128.29c-.25,0-.49.03-.74.07-.2.03-.39.09-.58.15-.23.08-.46.18-.67.3-.22.12-.41.26-.61.41-.35.27-.65.62-.89.99-.14.22-.24.45-.34.69-.08.2-.14.4-.18.61-.05.25-.08.52-.09.77,0,.26.02.52.06.78.07.47.23.92.45,1.33.13.23.29.45.45.65.14.17.29.34.46.49.2.18.41.35.62.5.19.14.39.26.59.38.24.14.5.25.76.35.21.08.43.15.66.2.44.09.89.12,1.33.08.45-.04.89-.13,1.31-.28.42-.15.83-.35,1.2-.6.76-.51,1.41-1.19,1.85-2,.13-.23.23-.47.33-.71.08-.2.15-.41.2-.62.11-.46.17-.94.15-1.42-.02-.46-.1-.92-.26-1.35-.08-.22-.18-.44-.3-.65-.12-.21-.26-.4-.4-.58-.26-.33-.59-.62-.94-.86-.16-.11-.32-.2-.5-.28-.21-.1-.43-.18-.66-.24-.22-.06-.46-.09-.69-.11-.08,0-.15.01-.22.05-.07.02-.13.06-.18.12-.1.1-.17.26-.17.4,0,.15.05.3.17.4.04.03.08.06.12.09.09.05.18.08.29.08.07,0,.13.01.2.02-.05,0-.1-.01-.15-.02.27.04.52.11.77.21-.05-.02-.09-.04-.14-.06.27.12.53.27.77.45-.04-.03-.08-.06-.11-.09.25.19.47.41.66.66-.03-.04-.06-.08-.09-.12.2.25.36.53.49.83-.02-.05-.04-.09-.06-.14.13.3.21.62.26.94,0-.05-.01-.1-.02-.15.05.38.05.76,0,1.13,0-.05.01-.1.02-.15-.06.43-.18.85-.34,1.25.02-.05.04-.09.06-.14-.17.4-.39.79-.66,1.13.03-.04.06-.08.09-.12-.26.34-.57.65-.92.91.04-.03.08-.06.12-.09-.35.27-.73.49-1.14.66.05-.02.09-.04.14-.06-.38.16-.78.27-1.19.33.05,0,.1-.01.15-.02-.36.05-.73.05-1.09,0,.05,0,.1.01.15.02-.36-.05-.72-.15-1.05-.29.05.02.09.04.14.06-.44-.19-.86-.44-1.24-.73.04.03.08.06.12.09-.32-.25-.62-.53-.87-.86.03.04.06.08.09.12-.19-.25-.35-.51-.47-.8.02.05.04.09.06.14-.12-.29-.2-.59-.24-.9,0,.05.01.1.02.15-.04-.33-.04-.66,0-.99,0,.05-.01.1-.02.15.04-.31.12-.61.24-.9-.02.05-.04.09-.06.14.11-.27.26-.52.43-.75-.03.04-.06.08-.09.12.18-.24.4-.45.64-.64-.04.03-.08.06-.12.09.25-.2.53-.36.82-.48-.05.02-.09.04-.14.06.29-.12.6-.21.91-.25-.05,0-.1.01-.15.02.15-.02.3-.03.46-.03.15,0,.3-.06.4-.17s.17-.26.17-.4c0-.15-.05-.3-.17-.4-.11-.1-.25-.17-.4-.17h0Z"/>
            </g>
            <path class="cls-41" d="M211.16,158.35c-3.23,2.72-6.34,5.54-9.32,8.45-3.32,3.24-3.29,8.49.1,11.77.33.32.66.65.99.98,4.79-5.63,9.68-11.33,16.26-15.57"/>
            <g>
              <g>
                <path class="cls-2" d="M149.31,79.19c-7.46,1.85-13.93,4.98-18.36,8.88-2.23,1.97-3.95,4.11-5.94,6.16-4.47,4.62-10.31,8.75-15.24,13.22-4.92,4.47-9,9.44-9.31,14.72-.32,5.28,3.82,10.89,11.95,13.39,6.25,1.92,7.96,6.75,14.57,5.27,6.6-1.48,18.24-9.14,23.15-12.06"/>
                <path class="cls-15" d="M162.19,73.26c4.98,4.01,11.12,4.46,17.67,1.68,1.03-.44,3.1-1.7,4.19-1.98.56-.14,1.15-.12,1.73-.11,1.49.05,2.99.09,4.48.14,2.96.09,6.16.27,8.44,2.16.66.55,1.22,1.23,1.53,2.04.43,1.14.31,2.4.17,3.6-.77,6.59-2.01,13.27-.9,19.81.66,3.87,2.12,7.56,3.11,11.36,1.09,4.18,1.62,8.56.92,12.82-.71,4.26-2.73,8.39-6.07,11.12-3.35,2.73-8.08,3.87-12.15,2.43-3.86-1.37-6.81-4.83-10.81-5.74-4.05-.92-8.68.89-12.24-1.25-.94-.57-1.91-1.42-2.98-1.17-.8.19-1.31.94-1.82,1.58-1.4,1.78-3.31,3.15-5.44,3.9-1.82.64-3.98.8-5.58-.28-2.22-1.5-2.5-4.62-2.36-7.3.37-7.29,2.16-14.42,3.3-21.62,1.14-7.21,1.62-14.72-.55-21.68-.47-1.49-.97-3.34.16-4.42.32-.31.73-.5,1.13-.68,4.69-2.14,9.39-4.28,14.08-6.42"/>
                <path class="cls-2" d="M198.55,134.66c7.9-6.61-6.55-24.83-9.58-35.45-3.11,6.38-3.14,21.84-.88,31.23,1.1,4.57,6.88,7.09,10.32,4.33.05-.04.09-.07.14-.11Z"/>
                <path class="cls-15" d="M192.26,73.28c8.33.2,15.41,5.66,19.93,11.86,4.51,6.21,7.2,13.33,11.44,19.68,7.4,11.08,19.63,20.07,22.69,32.66,1.73,7.11.09,14.91-4.83,20.73-4.93,5.82-13.18,9.42-21.37,8.89-.34-.02-.71-.06-.98-.25-.36-.25-.45-.68-.56-1.08-.73-2.63-3.21-4.82-6.18-5.45-1.19-.25-2.54-.31-3.43-1.05-.52-.44-.81-1.06-.98-1.68-1.02-3.67,1.31-7.43,1.19-11.21-.18-5.78-5.82-10.1-8.78-15.26-3.2-5.58-3.23-12.21-5.92-18-1.19-2.56-2.88-4.91-4.01-7.49-1.3-2.97-1.81-6.2-1.5-9.37"/>
                <g class="cls-34">
                  <path class="cls-9" d="M209.55,150.05c1.94-.38,3.94-.48,5.92-.29,1.95.19,3.89.67,5.69,1.47,1.73.76,3.32,1.81,4.68,3.12,1.3,1.26,2.39,2.74,3.19,4.37.79,1.61,1.29,3.36,1.42,5.15.02.23.03.45.03.68,0,.27.43.27.43,0-.03-1.86-.46-3.7-1.2-5.4-.74-1.7-1.8-3.27-3.08-4.61-1.32-1.38-2.88-2.52-4.59-3.37-1.81-.89-3.76-1.47-5.76-1.74-2.02-.27-4.08-.24-6.09.08-.25.04-.49.08-.73.13-.11.02-.18.16-.15.26.03.12.15.17.26.15h0Z"/>
                  <path class="cls-9" d="M211.69,157.17s0-.04,0-.06c0,.02,0,.04,0,.06.09-.68.22-1.35.38-2.01.16-.66.36-1.32.58-1.96.13-.36.27-.72.42-1.08,0,.02-.01.03-.02.05.2-.48.43-.96.67-1.43.07-.13.14-.26.21-.39.05-.1.03-.24-.08-.29-.1-.05-.23-.03-.29.08-.23.42-.45.85-.64,1.28-.21.45-.39.9-.57,1.37-.17.45-.32.9-.45,1.36-.13.46-.25.92-.35,1.39-.1.47-.18.94-.25,1.41-.01.07-.02.15-.03.22,0,.05.03.12.06.15.04.04.1.06.15.06.06,0,.11-.02.15-.06.04-.04.05-.09.06-.15h0Z"/>
                  <path class="cls-9" d="M215.38,158.7c.24-.46.49-.91.74-1.37.25-.45.51-.9.77-1.35.26-.45.52-.89.79-1.34.27-.44.54-.88.82-1.32.28-.44.56-.87.84-1.3.04-.05.07-.11.11-.16.06-.09.02-.24-.08-.29-.11-.06-.23-.02-.29.08-.29.43-.57.87-.85,1.3-.28.44-.55.88-.82,1.32-.27.44-.53.89-.79,1.34s-.52.9-.77,1.35c-.25.45-.5.9-.74,1.36-.03.06-.06.12-.09.17-.05.1-.03.24.08.29.1.05.24.03.29-.08h0Z"/>
                  <path class="cls-9" d="M217.38,160.88c.46-.43.91-.85,1.37-1.28.45-.42.91-.85,1.36-1.27.45-.42.91-.85,1.36-1.27.46-.43.91-.85,1.37-1.28.45-.42.91-.85,1.36-1.27.06-.05.11-.1.17-.16.08-.08.08-.23,0-.3-.09-.08-.21-.08-.3,0-.46.43-.91.85-1.37,1.28-.45.42-.91.85-1.36,1.27-.45.42-.91.85-1.36,1.27-.46.43-.91.85-1.37,1.28-.45.42-.91.85-1.36,1.27-.06.05-.11.1-.17.16-.08.08-.08.23,0,.3.09.08.21.08.3,0h0Z"/>
                  <path class="cls-9" d="M219.84,162.71c.51-.18,1.01-.38,1.51-.58.51-.21,1.01-.43,1.51-.65.49-.22.97-.45,1.45-.69.48-.24.96-.49,1.43-.75.47-.26.93-.52,1.39-.8.06-.03.11-.07.17-.1.1-.06.14-.19.08-.29-.06-.1-.19-.14-.29-.08-.46.28-.92.55-1.39.81-.47.26-.94.51-1.41.75-.48.24-.96.48-1.45.7-.24.11-.49.22-.73.33-.12.05-.24.11-.37.16-.03.01-.06.03-.09.04,0,0-.02,0-.03.01,0,0,.04-.02.02,0-.02,0-.04.02-.06.02-.06.02-.12.05-.18.07-.49.2-.99.4-1.5.59-.06.02-.13.05-.19.07-.05.02-.1.05-.13.1-.03.05-.04.11-.02.16.03.1.15.19.26.15h0Z"/>
                  <path class="cls-9" d="M222.52,165.33c.42-.05.84-.11,1.26-.19.4-.07.81-.15,1.21-.25s.8-.2,1.19-.31c.39-.11.78-.24,1.17-.37.39-.13.77-.28,1.15-.43.05-.02.09-.04.14-.06.05-.02.1-.05.13-.1.03-.05.04-.11.02-.16-.02-.05-.05-.1-.1-.13-.05-.02-.11-.04-.16-.02-.36.15-.73.29-1.1.42-.37.13-.74.26-1.12.37-.38.11-.75.22-1.13.31-.38.09-.77.18-1.15.25-.38.07-.77.14-1.16.19-.05,0-.1.01-.15.02.02,0,.04,0,.06,0-.09.01-.17.02-.26.03-.06,0-.11.02-.15.06-.04.04-.06.1-.06.15,0,.06.02.11.06.15.04.04.1.07.15.06h0Z"/>
                </g>
                <path class="cls-19" d="M138.58,89.64c.12.06.24.12.36.18s.24.12.36.18.24.12.36.18.24.12.36.18.24.12.36.18.24.12.36.18.24.12.36.18.24.12.36.18.24.12.36.18.24.12.36.18.24.12.36.18.24.12.36.18.24.12.36.18.24.12.36.17.24.12.36.17.24.11.37.17.24.11.36.17.24.11.37.17.24.11.37.17.24.11.37.17.25.11.37.16.24.11.37.16.25.11.37.16.25.11.37.16c.13.06.27.11.4.17.12.05.25.1.37.16s.25.1.37.15.25.1.37.15.25.1.37.15.25.1.37.15.25.1.37.14.25.09.38.14.25.09.38.14.25.09.38.14.25.09.38.13.25.09.38.13.25.08.38.13.25.08.38.12.25.08.38.12.25.08.38.12.26.08.38.11.26.07.38.11.26.07.38.11.26.07.39.1.26.07.39.1.26.06.39.1.26.06.39.09.26.06.39.09.26.06.39.08.26.05.39.08c.12.02.25.05.37.07s.24.05.37.07.25.04.37.06.25.04.37.06.24.04.37.06.25.04.37.05c.14.02.27.04.41.06.12.02.24.03.37.05s.25.03.37.04.24.03.37.04.25.03.37.04.25.02.37.03.25.02.37.03.25.02.37.03.25.02.37.02.25.02.37.02.25.01.37.02.25.01.37.02.25,0,.37.01.25,0,.37.01.25,0,.37,0,.25,0,.37,0,.25,0,.37,0,.25,0,.37,0,.25,0,.37,0,.25,0,.37,0,.25,0,.37,0,.25,0,.37-.01.25,0,.37-.01.25-.01.37-.02.25-.01.37-.02.25-.01.37-.02.25-.01.37-.02.25-.02.37-.02.25-.02.37-.03.25-.02.37-.03.25-.02.37-.03.25-.02.37-.03.25-.02.37-.03.25-.02.37-.04.25-.03.37-.04.25-.03.37-.04.25-.03.37-.04.25-.03.37-.04.25-.03.37-.05.25-.03.37-.05.25-.03.37-.05c.14-.02.27-.04.41-.06.12-.02.25-.03.37-.05s.25-.04.37-.05.25-.04.37-.05.25-.04.37-.06.25-.04.37-.06.25-.04.37-.06.25-.04.37-.06.25-.04.37-.06.25-.04.37-.06.25-.04.37-.06.25-.04.37-.06.25-.04.37-.07.25-.04.37-.07.25-.04.37-.07.25-.05.37-.07.25-.05.37-.07.25-.05.37-.07.25-.05.37-.07.25-.05.37-.07.25-.05.37-.07.25-.05.37-.07.25-.05.37-.07.25-.05.37-.07.25-.05.37-.07.25-.05.37-.07.25-.05.37-.07.25-.05.37-.07.25-.05.37-.08.25-.05.37-.08.25-.05.37-.08.25-.05.37-.08.25-.05.37-.08.25-.05.37-.08.25-.05.37-.08.25-.05.37-.08.25-.05.37-.08.25-.05.37-.08.25-.05.37-.07.25-.05.37-.07.25-.05.37-.07.25-.05.37-.07.25-.05.37-.07.25-.05.37-.07.25-.05.37-.07.25-.05.37-.07.25-.05.37-.07.25-.05.37-.07.25-.05.37-.07.25-.05.37-.07.25-.05.37-.07.25-.05.37-.07.25-.04.37-.07.25-.04.37-.07.25-.04.37-.07.25-.04.37-.06.25-.04.37-.06.25-.04.37-.06.25-.04.37-.06.25-.04.37-.06.25-.04.37-.06.25-.04.37-.06.25-.04.37-.06.25-.04.37-.06.25-.04.37-.05.25-.04.37-.05c.1-.01.21-.03.31-.04h-.04c.12-.01.25-.03.37-.04s.25-.03.37-.05.25-.03.37-.05.25-.03.37-.04.25-.03.37-.04.25-.03.37-.04.25-.03.37-.04.25-.02.37-.04.25-.02.37-.04.25-.02.37-.03.25-.02.37-.03.25-.02.37-.03.25-.02.37-.03.25-.02.37-.03.25-.02.37-.02.25-.01.37-.02.25-.01.37-.02.25-.01.37-.02.25,0,.37-.01.25,0,.37-.01.25,0,.37,0,.25,0,.37,0,.25,0,.37,0,.25,0,.37,0,.25,0,.37,0,.24,0,.37,0,.24,0,.37,0,.24,0,.37,0,.24,0,.37.01.24,0,.37.01.24.01.37.02.24.01.37.02.24.01.37.02.24.02.37.03.24.02.37.03.24.02.37.03.24.02.37.03.24.02.37.04.25.03.37.04.24.03.37.04.24.03.35.05h-.04c.13.01.25.03.38.05.04,0,.07.01.11.02.02,0,.04,0,.06,0,.02,0,.04,0,.06-.02.02,0,.03-.02.04-.04.01-.01.02-.03.03-.05,0-.04,0-.08-.02-.12l-.02-.03s-.04-.03-.07-.04c-.18-.03-.35-.05-.53-.07-.16-.02-.33-.04-.49-.06s-.33-.04-.49-.06-.33-.04-.49-.05-.33-.03-.49-.05-.33-.03-.49-.04-.33-.02-.49-.03-.33-.02-.49-.03-.33-.02-.49-.02-.33-.01-.49-.02-.33-.01-.49-.01-.33,0-.49,0-.33,0-.49,0-.33,0-.49,0-.33,0-.49,0-.33,0-.49,0-.33,0-.49.01-.33.01-.49.02-.33.01-.49.02-.33.02-.49.03-.33.02-.49.03-.33.02-.49.03-.33.02-.5.04-.33.03-.49.04-.33.03-.5.04-.33.03-.49.05-.33.03-.5.05-.33.04-.49.05-.33.04-.49.06-.33.04-.49.06-.33.04-.49.06c-.18.02-.35.05-.53.07-.16.02-.33.05-.49.07s-.33.05-.49.07-.33.05-.49.07-.33.05-.5.08-.33.05-.49.08-.33.05-.5.08-.33.05-.49.08-.33.06-.49.08-.33.06-.49.09-.33.06-.49.09-.33.06-.49.09-.33.06-.49.09-.33.06-.49.09-.33.06-.49.09-.33.06-.49.09-.33.06-.49.1-.33.06-.5.1-.33.06-.49.1-.33.07-.5.1-.33.07-.49.1-.33.07-.49.1-.33.07-.49.1-.33.07-.49.1-.33.07-.49.1-.33.07-.49.1-.33.07-.49.1-.33.07-.49.1-.33.07-.49.1-.33.07-.49.1-.33.07-.5.1-.33.07-.49.1-.33.07-.5.1-.33.06-.49.1-.33.06-.49.1-.33.06-.49.1-.33.06-.49.09-.33.06-.49.09-.33.06-.49.09-.33.06-.49.09-.33.06-.49.09-.33.06-.49.09-.33.06-.49.08-.33.06-.49.08-.33.05-.49.08-.33.05-.49.08-.33.05-.49.08-.33.05-.49.07-.33.05-.49.07-.33.05-.49.07c-.15.02-.3.04-.45.06h.04c-.12.01-.24.03-.37.04s-.24.03-.37.05-.24.03-.37.05-.24.03-.37.04-.24.03-.36.04-.24.03-.36.04-.24.03-.36.04-.24.02-.36.04-.24.02-.36.03-.24.02-.36.03-.24.02-.36.03-.24.02-.36.03-.24.02-.36.03-.24.02-.36.02-.24.02-.36.02-.24.01-.36.02-.24.01-.36.02-.24.01-.36.02-.24,0-.36.01-.24,0-.36.01-.24,0-.36,0-.24,0-.36,0-.24,0-.36,0-.24,0-.36,0-.24,0-.36,0-.24,0-.36,0-.24,0-.36,0-.24,0-.36,0-.24,0-.36-.01-.24,0-.36-.01-.24-.01-.36-.02-.24-.01-.36-.02-.24-.01-.36-.02-.24-.02-.36-.03-.24-.02-.36-.03-.24-.02-.36-.03-.24-.02-.36-.03-.24-.02-.36-.04-.24-.03-.36-.04-.24-.03-.36-.04-.23-.03-.35-.05h.04c-.19-.02-.39-.05-.58-.08s-.38-.06-.57-.09-.38-.06-.57-.1-.38-.07-.58-.11-.4-.08-.59-.12-.41-.09-.61-.13-.41-.09-.61-.14-.41-.1-.61-.15-.4-.11-.6-.16-.4-.11-.6-.17-.4-.12-.6-.18-.4-.12-.6-.19-.4-.13-.59-.19-.4-.13-.59-.2-.39-.14-.59-.21-.39-.14-.59-.22-.39-.15-.58-.22-.39-.15-.59-.23-.39-.15-.58-.23-.39-.16-.58-.24c-.09-.04-.19-.08-.28-.12l.04.02c-.15-.06-.3-.13-.45-.19s-.3-.13-.45-.19-.3-.13-.45-.2-.3-.13-.45-.2-.3-.13-.44-.2-.3-.14-.44-.2-.3-.14-.44-.21-.3-.14-.44-.21-.3-.14-.44-.21-.29-.14-.44-.21-.3-.14-.44-.21-.29-.14-.44-.21-.29-.14-.44-.22-.29-.14-.44-.22-.29-.14-.44-.22-.29-.15-.44-.22-.29-.14-.44-.22-.29-.15-.44-.22-.29-.15-.44-.22-.29-.15-.44-.22c-.07-.04-.14-.07-.21-.11-.02-.01-.04-.02-.06-.02-.02,0-.04,0-.06,0-.02,0-.04.01-.05.03-.02.01-.03.02-.04.04-.02.03-.03.08-.02.12.01.04.03.07.07.09h0Z"/>
                <path class="cls-19" d="M145.64,81.07c.21.11.42.21.64.32s.42.21.64.32.42.21.63.32.43.21.64.32.42.21.64.31.43.21.64.31.43.2.64.31.43.2.64.3.43.2.65.3.43.19.64.29.43.19.65.28.45.19.68.29.43.18.65.27.44.17.66.26.44.17.66.25.44.16.66.24.44.15.66.23.44.15.67.21.45.14.67.2.45.13.67.19.45.12.68.17.45.11.68.16.46.1.68.14.44.08.66.12.42.07.63.1c.22.03.45.07.67.1.21.03.42.05.63.08s.42.04.63.06.42.04.63.05.42.03.63.04.42.02.63.03.42.01.63.02.42,0,.63,0,.42,0,.63,0,.42,0,.63-.02.42-.02.63-.03.42-.02.63-.04.42-.03.63-.05.42-.03.63-.05.42-.04.63-.06.42-.05.63-.07.42-.05.63-.08c.22-.03.45-.06.67-.09.21-.03.42-.06.63-.09s.42-.07.63-.1.42-.07.63-.11.42-.07.63-.11.42-.08.63-.12.42-.08.63-.12.42-.08.63-.13.42-.09.63-.13.42-.09.63-.14.42-.09.63-.14.42-.09.63-.14.42-.1.63-.15.42-.1.63-.15.42-.1.63-.15.42-.1.63-.15.42-.1.63-.15.42-.1.63-.16.42-.1.63-.16.42-.1.63-.16.42-.1.63-.16.42-.1.63-.16.42-.1.63-.16.42-.1.63-.15.42-.1.63-.15.42-.1.63-.15.42-.1.63-.15.42-.1.63-.15.42-.1.63-.14.42-.09.63-.14.42-.09.63-.14.42-.09.63-.13.42-.09.63-.13.42-.08.63-.12.42-.08.63-.12.42-.08.63-.11.42-.07.63-.11.42-.07.63-.1.42-.06.63-.1c.19-.03.39-.06.58-.08h-.04c.17-.02.33-.04.5-.06s.34-.04.5-.06.33-.04.5-.06.34-.03.5-.05.33-.03.5-.04.33-.03.5-.04.33-.02.5-.03.33-.02.5-.03.33-.02.5-.02.33-.01.5-.02.34,0,.5,0,.33,0,.5,0,.34,0,.5,0,.33,0,.5.01.33.01.5.02.34.02.5.03.34.02.5.03.34.03.5.04.34.03.5.05.34.04.5.06c.08,0,.16.02.24.03.02,0,.04,0,.06-.01.02,0,.03-.02.05-.03.01-.01.02-.03.03-.05,0-.02.01-.04.01-.06,0-.04-.01-.08-.04-.11l-.03-.02s-.05-.02-.08-.02c-.14-.02-.29-.04-.43-.05s-.29-.03-.43-.05-.29-.03-.43-.04-.29-.02-.43-.03-.29-.02-.43-.03-.29-.02-.43-.02-.29-.01-.43-.02-.29,0-.43-.01-.29,0-.43,0-.29,0-.43,0-.29,0-.43,0-.29,0-.43,0-.29,0-.43.01-.29.01-.43.02-.29.01-.43.02-.29.02-.43.03-.29.02-.43.03-.29.02-.43.03-.29.02-.43.04-.29.03-.43.04-.29.03-.43.05-.29.03-.43.05-.29.04-.43.05c-.16.02-.31.04-.47.06-.14.02-.29.04-.43.06s-.29.04-.43.06-.29.04-.43.07-.29.05-.43.07-.29.05-.43.07-.29.05-.43.08-.29.05-.43.08-.29.05-.43.08-.29.05-.43.08-.29.06-.43.09-.29.06-.43.09-.29.06-.43.09-.29.06-.43.09-.29.06-.43.09-.29.06-.43.1-.29.06-.43.1-.29.07-.43.1-.29.07-.43.1-.29.07-.43.1-.29.07-.43.1-.29.07-.43.1-.29.07-.43.1-.29.07-.43.1-.29.07-.43.11-.29.07-.43.11-.29.07-.43.11-.29.07-.43.11-.29.07-.43.11-.29.07-.43.11-.29.07-.43.11-.29.07-.43.11-.29.07-.43.11-.29.07-.43.11-.29.07-.43.11-.29.07-.43.1-.29.07-.43.1-.29.07-.43.1-.29.07-.43.1-.29.07-.43.1-.29.07-.43.1-.29.07-.43.1-.29.07-.43.1-.29.06-.43.1-.29.06-.43.09-.29.06-.43.09-.29.06-.43.09-.29.06-.43.09-.29.06-.43.09-.29.06-.43.08-.29.06-.43.08-.29.05-.43.08-.29.05-.43.08-.29.05-.43.07-.29.05-.43.07-.29.05-.43.07-.29.04-.43.07-.29.04-.43.06c-.13.02-.26.04-.4.05h.04c-.17.02-.34.04-.51.06s-.34.04-.51.06-.34.04-.51.06-.34.03-.51.05-.34.03-.51.04-.34.03-.51.04-.34.02-.51.03-.34.02-.51.03-.34.02-.51.02-.34.01-.51.01-.34,0-.51,0-.34,0-.51,0-.34,0-.51,0-.34,0-.51-.01-.34-.01-.51-.02-.34-.02-.51-.03-.34-.02-.51-.04-.34-.03-.51-.04-.34-.03-.51-.05-.34-.04-.51-.06c-.08-.01-.16-.02-.24-.03h.04c-.15-.01-.3-.04-.44-.06s-.3-.05-.44-.07-.3-.05-.44-.08c-.15-.03-.31-.06-.46-.09s-.32-.06-.48-.1-.32-.07-.48-.11-.32-.07-.48-.11-.32-.08-.48-.12-.32-.08-.47-.13-.32-.09-.47-.14-.31-.09-.47-.14-.31-.1-.47-.15-.31-.1-.47-.15-.31-.11-.47-.16-.31-.11-.47-.17-.31-.11-.46-.17-.31-.12-.46-.18-.31-.12-.46-.18-.31-.12-.46-.18-.31-.13-.46-.19c-.07-.03-.15-.06-.22-.09l.04.02c-.12-.05-.24-.1-.37-.16s-.24-.1-.36-.16-.24-.11-.36-.16-.24-.11-.36-.16-.24-.11-.36-.16-.24-.11-.36-.17-.24-.11-.36-.17-.24-.11-.36-.17-.24-.11-.36-.17-.24-.11-.36-.17-.24-.12-.36-.17-.24-.12-.36-.17-.24-.12-.36-.18-.24-.12-.36-.18-.24-.12-.36-.18-.24-.12-.36-.18-.24-.12-.36-.18-.24-.12-.36-.18-.24-.12-.36-.18-.24-.12-.36-.18c-.06-.03-.11-.06-.17-.09-.02-.01-.04-.02-.06-.02-.02,0-.04,0-.06,0-.02,0-.04.01-.05.03-.02.01-.03.02-.04.04-.02.03-.03.08-.02.12.01.04.03.07.07.09h0Z"/>
                <path class="cls-2" d="M209.01,148.24c-.79,8.61,11.75-12.7,17.62-19.05-6.84.96-15.56,4.9-19.64,10.47,0,0,2.47,3.62,2.02,8.58Z"/>
              </g>
              <g>
                <rect class="cls-28" x="124.93" y="82.8" width="63.91" height="46.2" rx="2.6" ry="2.6" transform="translate(19.64 -24.45) rotate(9.5)"/>
                <path class="cls-21" d="M161.35,107.97c-.43,2.59-2.88,4.33-5.46,3.9-2.59-.43-4.33-2.88-3.9-5.47.43-2.59,2.88-4.33,5.46-3.9s4.33,2.88,3.9,5.46Z"/>
              </g>
              <g>
                <path class="cls-41" d="M141.07,112.82c3.63-2.36,17.44-5.88,17.44-5.88,0,0,10.35-3.89,11.69-4.92,1.21-.93-9.1,1.92-9.1,1.92,0,0,11.27-4.83,11.43-5.89.16-1.05-12.42,4.15-12.42,4.15,0,0,13.13-5.69,12.4-6.52-.73-.83-16.39,5.83-12.85,4.4,3.55-1.44,10.58-5.9,8.44-5.74,0,0-5.56,1.88-9.52,4.03-3.96,2.14-.45-2.24.83-4.73,1.28-2.49-1.66.06-3.71,2.49-2.04,2.43-3.8,5.81-4.98,6.9-1.18,1.09-13.48,5.37-13.48,5.37"/>
                <g>
                  <path class="cls-15" d="M148.62,106.77c-2.87-10.48-5.79-8.99-7.56-8.62-1.77.38-3.49,1.18-5.29,1.25-2.15.08-4.21-.88-6.28-1.58-6.21-2.12-13.02-1.97-19.15.44-3.06,1.2-6,3-8.18,5.69-3.6,4.46-4.69,10.91-4.05,16.87.85,7.88,4.73,15.53,10.9,19.43,6.17,3.9,14.6,3.42,19.8-1.98,4.56-4.73,6.33-12.44,11.57-16.18,1.77-1.26,3.8-1.96,5.65-3.06,1.85-1.1,3.61-2.77,4.11-5.04.53-2.46-.52-4.97-1.54-7.23"/>
                  <g class="cls-34">
                    <path class="cls-9" d="M144.61,119.7c-1.38-.73-2.67-1.69-3.81-2.84-1.13-1.14-2.11-2.47-2.86-3.94-.72-1.42-1.23-2.97-1.47-4.58-.23-1.55-.23-3.14.02-4.68.25-1.52.74-3.01,1.49-4.31.09-.17.19-.33.29-.49.12-.19-.14-.41-.26-.22-.83,1.31-1.41,2.81-1.73,4.38-.32,1.57-.39,3.2-.21,4.79.18,1.64.63,3.24,1.31,4.7.71,1.55,1.67,2.96,2.78,4.17,1.13,1.23,2.42,2.26,3.82,3.08.17.1.34.19.52.29.08.04.18-.02.21-.11.03-.1-.01-.2-.09-.24h0Z"/>
                    <path class="cls-9" d="M146.55,113.64s-.02.03-.03.04c.01-.01.02-.02.03-.04-.37.42-.75.83-1.16,1.2-.4.38-.83.73-1.26,1.06-.25.19-.5.36-.75.53.01,0,.02-.02.04-.02-.35.23-.71.45-1.07.65-.1.06-.21.11-.31.17-.08.04-.13.15-.09.24.04.09.13.14.22.1.34-.17.67-.36.99-.56.33-.21.66-.43.98-.66.31-.23.61-.46.9-.71.29-.25.58-.51.86-.79.28-.27.55-.56.81-.86.04-.05.08-.09.12-.14.03-.03.04-.1.03-.14,0-.04-.03-.1-.06-.12-.04-.03-.08-.04-.12-.03-.05.01-.08.04-.11.07h0Z"/>
                    <path class="cls-9" d="M144.97,110.68c-.36.19-.72.38-1.09.57s-.73.37-1.1.55c-.37.18-.74.35-1.11.52s-.74.34-1.12.5c-.37.16-.74.32-1.12.47-.05.02-.1.04-.14.06-.08.03-.12.16-.09.24.04.09.13.13.22.1.38-.15.75-.31,1.12-.47.37-.16.75-.33,1.12-.5.37-.17.74-.34,1.11-.52.37-.18.73-.36,1.1-.54.36-.18.72-.37,1.08-.57.05-.02.09-.05.14-.07.08-.04.13-.15.09-.24-.04-.09-.13-.14-.22-.1h0Z"/>
                    <path class="cls-9" d="M144.72,108.14c-.48.06-.96.12-1.44.19-.48.06-.95.12-1.43.19-.48.06-.95.12-1.43.19-.48.06-.96.12-1.44.19-.48.06-.95.12-1.43.19l-.18.02c-.09.01-.16.11-.14.21.02.1.1.17.19.16l1.44-.19c.48-.06.95-.12,1.43-.18.48-.06.95-.12,1.43-.19.48-.06.96-.12,1.44-.19.48-.06.95-.12,1.43-.18.06,0,.12-.02.18-.02.09-.01.16-.11.14-.21-.02-.1-.1-.17-.19-.16h0Z"/>
                    <path class="cls-9" d="M144.04,105.59c-.4-.13-.8-.25-1.2-.37-.41-.12-.83-.23-1.24-.32-.4-.1-.81-.19-1.22-.26-.41-.08-.82-.15-1.23-.21-.41-.06-.82-.12-1.23-.16-.05,0-.1-.01-.15-.02-.09,0-.18.06-.18.16,0,.1.05.19.15.2.41.04.82.09,1.23.15.41.06.82.13,1.22.2.41.08.82.16,1.22.26.2.05.4.1.6.15.1.03.2.05.3.08.02,0,.05.01.07.02,0,0,.01,0,.02,0,0,0-.03,0-.02,0,.02,0,.03,0,.05.01.05.01.1.03.14.04.4.11.8.23,1.2.36.05.02.1.03.15.05.04.01.08.02.12,0,.04-.02.08-.06.09-.1.03-.09,0-.21-.09-.24h0Z"/>
                    <path class="cls-9" d="M143.58,102.4c-.29-.18-.58-.35-.87-.52-.28-.16-.57-.31-.86-.45-.29-.14-.59-.27-.88-.4-.3-.12-.6-.24-.9-.34-.3-.11-.61-.2-.92-.29-.04-.01-.08-.02-.12-.03-.04-.01-.08-.02-.12,0-.04.02-.08.06-.09.1-.01.04-.02.1,0,.14.02.04.05.09.09.1.29.08.59.17.88.27.29.1.58.21.87.32.28.11.57.24.85.37.28.13.56.27.83.42.27.15.54.3.81.46.03.02.07.04.1.06-.01,0-.03-.02-.04-.02.06.04.12.07.18.11.04.03.08.04.12.03.04,0,.09-.03.11-.07.02-.04.04-.09.03-.14,0-.04-.03-.1-.06-.12h0Z"/>
                  </g>
                </g>
              </g>
            </g>
            <g>
              <path class="cls-18" d="M192.79,157.46s9.61,15.2,16.43,21.81c.96.93,1.45,2.23,1.37,3.57l-.16,2.69c-.16,2.71-3.44,3.97-5.37,2.06l-14.06-13.92c-2.79-2.76-3.39-7.05-1.45-10.47l3.24-5.73Z"/>
              <path class="cls-9" d="M201.05,177.2c0,.85-.69,1.54-1.54,1.54s-1.54-.69-1.54-1.54.69-1.54,1.54-1.54,1.54.69,1.54,1.54Z"/>
            </g>
          </g>
        </g>
      </g>
    </g>
  </g>
</svg>